<svg xmlns="http://www.w3.org/2000/svg" version="1.1" xmlns:xlink="http://www.w3.org/1999/xlink" xmlns:svgjs="http://svgjs.dev/svgjs" width="1500" height="1500" viewBox="0 0 1500 1500"><rect width="1500" height="1500" fill="#000000"></rect><g transform="matrix(0.6666666666666666,0,0,0.6666666666666666,249.44456325264264,438.5856950067477)"><svg viewBox="0 0 396 247" data-background-color="#9ac8cd" preserveAspectRatio="xMidYMid meet" height="935" width="1500" xmlns="http://www.w3.org/2000/svg" xmlns:xlink="http://www.w3.org/1999/xlink"><g id="tight-bounds" transform="matrix(1,0,0,1,0.21995295195353037,-0.09999999999999432)"><svg viewBox="0 0 395.52 247.2" height="247.2" width="395.52"><g><svg></svg></g><g><svg viewBox="0 0 395.52 247.2" height="247.2" width="395.52"><g><path d="M55.039 247.2l32.137-55.663 4.163 0-29.941 51.86h272.724l-29.941-51.86 4.163 0 32.137 55.663zM197.76 0l32.137 55.663-4.163 0-27.974-48.452-27.974 48.452-4.163 0z" fill="#ffffff" fill-rule="nonzero" stroke="none" stroke-width="1" stroke-linecap="butt" stroke-linejoin="miter" stroke-miterlimit="10" stroke-dasharray="" stroke-dashoffset="0" font-family="none" font-weight="none" font-size="none" text-anchor="none" style="mix-blend-mode: normal" data-fill-palette-color="tertiary"></path></g><g transform="matrix(1,0,0,1,0,75.07337656587615)"><svg viewBox="0 0 395.52 97.05324686824771" height="97.05324686824771" width="395.52"><g><svg viewBox="0 0 499.5656563062153 122.58411450340135" height="97.05324686824771" width="395.52"><g transform="matrix(1,0,0,1,0,22.72661507482993)"><svg viewBox="0 0 395.52 77.1308843537415" height="77.1308843537415" width="395.52"><g id="textblocktransform"><svg viewBox="0 0 395.52 77.1308843537415" height="77.1308843537415" width="395.52" id="textblock"><g><svg viewBox="0 0 395.52 77.1308843537415" height="77.1308843537415" width="395.52"><g transform="matrix(1,0,0,1,0,0)"><svg width="395.52" viewBox="2.7 -25.35 132.79000000000002 25.8" height="77.1308843537415" data-palette-color="#0e46a3"><g class="wordmark-text-0" data-fill-palette-color="primary" id="text-0"><path d="M2.7 0.45L2.95-1.6Q4.8-1.95 5.45-2.63 6.1-3.3 6.1-4.95L6.1-4.95 6.15-20.85Q6.15-22.1 5.85-22.53 5.55-22.95 4.65-22.95L4.65-22.95 3.3-22.9 3.15-23.1 3.45-25Q3.95-25 5.33-24.95 6.7-24.9 8.1-24.9L8.1-24.9Q9.25-24.9 10.85-25.05 12.45-25.2 12.95-25.25L12.95-25.25 12.75-23.2Q11.55-23 11.05-22.73 10.55-22.45 10.38-21.88 10.2-21.3 10.1-19.9L10.1-19.9 9.85-13.85 16.35-13.8Q19-13.8 22.1-14.15L22.1-14.15 22.15-20.85Q22.15-22.1 21.85-22.53 21.55-22.95 20.65-22.95L20.65-22.95 19.25-22.9 19.15-23.1 19.45-25Q19.9-24.95 21.2-24.93 22.5-24.9 23.75-24.9L23.75-24.9Q24.95-24.9 26.68-25.05 28.4-25.2 28.95-25.25L28.95-25.25 28.8-23.2Q27.25-23 26.75-22.58 26.25-22.15 26.2-21L26.2-21Q26-17.05 25.83-12.18 25.65-7.3 25.65-4.65L25.65-4.65Q25.65-3.05 26-2.53 26.35-2 27.4-2L27.4-2Q28-2 28.5-2.05 29-2.1 29.15-2.1L29.15-2.1 29.3-1.9 28.9 0.1Q28.35 0.1 26.83 0.05 25.3 0 23.65 0L23.65 0 18.65 0.05 19.05-1.95Q20.35-1.95 20.98-2.27 21.6-2.6 21.85-3.43 22.1-4.25 22.1-5.9L22.1-5.9 22.1-11.5 16.35-11.55Q15.55-11.55 13.1-11.38 10.65-11.2 9.8-11.15L9.8-11.15 9.65-4.65Q9.65-3.05 10-2.5 10.35-1.95 11.4-1.95L11.4-1.95Q12-1.95 12.5-2 13-2.05 13.15-2.1L13.15-2.1 13.25-1.9 12.9 0.1Q12.5 0.1 11.38 0.05 10.25 0 9 0L9 0Q7.15 0 4.95 0.15 2.75 0.3 2.7 0.45L2.7 0.45ZM46.15 0.35L46 0.1 46.15-1.7Q48.25-1.85 48.97-2.15 49.7-2.45 49.7-3.15L49.7-3.15Q49.7-3.95 49.35-4.85L49.35-4.85 48.15-8.7Q47.15-8.75 44-8.75L44-8.75Q42.55-8.75 39.7-8.45L39.7-8.45 38.3-4.75Q37.95-3.6 37.95-3.35L37.95-3.35Q37.95-2.55 38.5-2.2 39.05-1.85 40.3-1.85L40.3-1.85 42.45-1.85 42.6-1.65 42.3 0.25Q41.8 0.2 40.02 0.1 38.25 0 36.55 0L36.55 0Q34.95 0 33.67 0.05 32.4 0.1 31.95 0.1L31.95 0.1 32.25-1.95Q33.35-2.1 34-2.73 34.65-3.35 35.3-4.85L35.3-4.85 43.15-24.7 46.7-25.35 47.05-25.3Q47.05-25.1 49.32-17.4 51.6-9.7 53.4-4.65L53.4-4.65Q53.9-3.2 54.67-2.63 55.45-2.05 57.15-1.9L57.15-1.9 57.25-1.7 57 0.1Q56.5 0.1 55.15 0.05 53.8 0 52.45 0L52.45 0Q50.4 0 48.55 0.15 46.7 0.3 46.15 0.35L46.15 0.35ZM40.5-10.8L43.9-10.8Q45.65-10.8 47.55-11L47.55-11 44.5-20.7 44.15-20.7 40.5-10.8ZM71 0.45Q70.35 0.35 68.37 0.18 66.4 0 65.05 0L65.05 0Q63.75 0 62.2 0.18 60.65 0.35 60.2 0.45L60.2 0.45 60.45-1.65Q62.25-1.95 62.9-2.65 63.55-3.35 63.55-4.95L63.55-4.95 63.6-20.85Q63.6-22.1 63.3-22.53 63-22.95 62.15-22.95L62.15-22.95Q61.7-22.95 61.3-22.9 60.9-22.85 60.75-22.85L60.75-22.85 60.65-23.1 60.95-25Q61.45-25 62.77-24.95 64.1-24.9 65.45-24.9L65.45-24.9Q67.25-24.9 69.15-24.98 71.05-25.05 71.75-25.05L71.75-25.05Q75.75-25.05 78.8-23.6 81.85-22.15 83.52-19.53 85.2-16.9 85.2-13.4L85.2-13.4Q85.2-9.5 83.32-6.35 81.45-3.2 78.2-1.38 74.95 0.45 71 0.45L71 0.45ZM69.1-22.7Q68.3-22.7 68.02-22.53 67.75-22.35 67.7-21.8L67.7-21.8Q67.1-7.75 67.1-5.3L67.1-5.3Q67.1-3.95 67.5-3.23 67.9-2.5 68.9-2.23 69.9-1.95 71.85-1.95L71.85-1.95Q76.05-1.95 78.42-4.7 80.8-7.45 80.8-12.4L80.8-12.4Q80.8-17.45 77.8-20.08 74.8-22.7 69.1-22.7L69.1-22.7ZM96.79 0.45Q95.04 0.45 93.57 0.15 92.09-0.15 91.22-0.48 90.34-0.8 90.14-0.9L90.14-0.9 89.89-1.35Q89.94-1.6 90.07-2.48 90.19-3.35 90.32-4.93 90.44-6.5 90.44-8.1L90.44-8.1 92.69-8.3Q92.69-5.6 93.12-4.28 93.54-2.95 94.59-2.45 95.64-1.95 97.79-1.95L97.79-1.95Q100.19-1.95 101.67-3 103.14-4.05 103.14-5.8L103.14-5.8Q103.14-6.95 102.32-7.83 101.49-8.7 100.42-9.3 99.34-9.9 96.99-11.05L96.99-11.05Q93.79-12.6 92.07-14.1 90.34-15.6 90.34-17.95L90.34-17.95Q90.34-20.05 91.62-21.75 92.89-23.45 95.14-24.4 97.39-25.35 100.14-25.35L100.14-25.35Q101.79-25.35 103.24-25.15 104.69-24.95 105.54-24.73 106.39-24.5 106.59-24.4L106.59-24.4 106.79-24.05Q106.69-23.5 106.34-21.58 105.99-19.65 105.84-17.45L105.84-17.45 103.89-17.25 103.59-17.45Q103.59-17.6 103.64-18.07 103.69-18.55 103.69-19.25L103.69-19.25Q103.69-21.2 102.67-21.98 101.64-22.75 99.04-22.75L99.04-22.75Q96.94-22.75 95.57-21.78 94.19-20.8 94.19-19.3L94.19-19.3Q94.19-17.8 95.57-16.75 96.94-15.7 99.74-14.35L99.74-14.35Q102.19-13.2 103.67-12.35 105.14-11.5 106.19-10.2 107.24-8.9 107.24-7.2L107.24-7.2Q107.24-4.95 105.92-3.23 104.59-1.5 102.22-0.53 99.84 0.45 96.79 0.45L96.79 0.45ZM124.39 0.35L124.24 0.1 124.39-1.7Q126.49-1.85 127.22-2.15 127.94-2.45 127.94-3.15L127.94-3.15Q127.94-3.95 127.59-4.85L127.59-4.85 126.39-8.7Q125.39-8.75 122.24-8.75L122.24-8.75Q120.79-8.75 117.94-8.45L117.94-8.45 116.54-4.75Q116.19-3.6 116.19-3.35L116.19-3.35Q116.19-2.55 116.74-2.2 117.29-1.85 118.54-1.85L118.54-1.85 120.69-1.85 120.84-1.65 120.54 0.25Q120.04 0.2 118.27 0.1 116.49 0 114.79 0L114.79 0Q113.19 0 111.92 0.05 110.64 0.1 110.19 0.1L110.19 0.1 110.49-1.95Q111.59-2.1 112.24-2.73 112.89-3.35 113.54-4.85L113.54-4.85 121.39-24.7 124.94-25.35 125.29-25.3Q125.29-25.1 127.57-17.4 129.84-9.7 131.64-4.65L131.64-4.65Q132.14-3.2 132.92-2.63 133.69-2.05 135.39-1.9L135.39-1.9 135.49-1.7 135.24 0.1Q134.74 0.1 133.39 0.05 132.04 0 130.69 0L130.69 0Q128.64 0 126.79 0.15 124.94 0.3 124.39 0.35L124.39 0.35ZM118.74-10.8L122.14-10.8Q123.89-10.8 125.79-11L125.79-11 122.74-20.7 122.39-20.7 118.74-10.8Z" fill="#ffffff" data-fill-palette-color="primary"></path></g></svg></g></svg></g></svg></g></svg></g><g transform="matrix(1,0,0,1,413.72875065469384,0)"><svg viewBox="0 0 85.83690565152145 122.58411450340135" height="122.58411450340135" width="85.83690565152145"><g><svg xmlns="http://www.w3.org/2000/svg" xmlns:xlink="http://www.w3.org/1999/xlink" version="1.1" x="0" y="0" viewBox="22.333 -27.341 43.8000005723363 62.551" enable-background="new 0 -38.125 84.406 84.875" xml:space="preserve" height="122.58411450340135" width="85.83690565152145" class="icon-icon-0" data-fill-palette-color="accent" id="icon-0"><g fill="#1e0342" data-fill-palette-color="accent"><path d="M62.634-6.282A3.5 3.5 0 0 0 59.134-2.782C59.134 6.533 55.554 12.217 53.182 13.796 53.191 13.694 53.212 13.597 53.212 13.493V-23.841A3.5 3.5 0 1 0 46.212-23.841V-0.457H45.15A3.495 3.495 0 0 0 41.712-3.339 3.494 3.494 0 0 0 38.274-0.457H37.211V-23.841A3.5 3.5 0 1 0 30.211-23.841V-0.457H29.333V-15.84A3.5 3.5 0 1 0 22.333-15.84V35.21H52C51.906 28.044 55 27.187 55 27.187 62.118 24.461 66.133 12.58 66.133 0.453V-2.78A3.5 3.5 0 0 0 62.634-6.282" fill="#ffffff" data-fill-palette-color="accent"></path></g></svg></g></svg></g></svg></g></svg></g></svg></g><defs></defs></svg><rect width="395.52" height="247.2" fill="none" stroke="none" visibility="hidden"></rect></g></svg></g></svg>